<?xml version="1.0" encoding="utf-8" standalone="no"?>
<!DOCTYPE svg PUBLIC "-//W3C//DTD SVG 1.1//EN"
  "http://www.w3.org/Graphics/SVG/1.1/DTD/svg11.dtd">
<svg xmlns:xlink="http://www.w3.org/1999/xlink" width="1000.59pt" height="568.049375pt" viewBox="0 0 1000.59 568.049375" xmlns="http://www.w3.org/2000/svg" version="1.1">
 <metadata>
  <rdf:RDF xmlns:dc="http://purl.org/dc/elements/1.1/" xmlns:cc="http://creativecommons.org/ns#" xmlns:rdf="http://www.w3.org/1999/02/22-rdf-syntax-ns#">
   <cc:Work>
    <dc:type rdf:resource="http://purl.org/dc/dcmitype/StillImage"/>
    <dc:date>2025-09-04T20:08:15.750505</dc:date>
    <dc:format>image/svg+xml</dc:format>
    <dc:creator>
     <cc:Agent>
      <dc:title>Matplotlib v3.9.4, https://matplotlib.org/</dc:title>
     </cc:Agent>
    </dc:creator>
   </cc:Work>
  </rdf:RDF>
 </metadata>
 <defs>
  <style type="text/css">*{stroke-linejoin: round; stroke-linecap: butt}</style>
 </defs>
 <g id="figure_1">
  <g id="patch_1">
   <path d="M 0 568.049375 
L 1000.59 568.049375 
L 1000.59 0 
L 0 0 
z
" style="fill: #ffffff"/>
  </g>
  <g id="axes_1">
   <g id="patch_2">
    <path d="M 48.995 528.5575 
L 993.39 528.5575 
L 993.39 39.3575 
L 48.995 39.3575 
z
" style="fill: #ffffff"/>
   </g>
   <g id="matplotlib.axis_1">
    <g id="xtick_1">
     <g id="line2d_1">
      <path d="M 91.922045 528.5575 
L 91.922045 39.3575 
" clip-path="url(#p7dc22beb7f)" style="fill: none; stroke: #b0b0b0; stroke-opacity: 0.3; stroke-width: 0.8; stroke-linecap: square"/>
     </g>
     <g id="line2d_2">
      <defs>
       <path id="m00afbbfdb2" d="M 0 0 
L 0 3.5 
" style="stroke: #000000; stroke-width: 0.8"/>
      </defs>
      <g>
       <use xlink:href="#m00afbbfdb2" x="91.922045" y="528.5575" style="stroke: #000000; stroke-width: 0.8"/>
      </g>
     </g>
     <g id="text_1">
      <!-- 11:11:56 -->
      <g transform="translate(69.465795 543.155937) scale(0.1 -0.1)">
       <defs>
        <path id="DejaVuSans-31" d="M 794 531 
L 1825 531 
L 1825 4091 
L 703 3866 
L 703 4441 
L 1819 4666 
L 2450 4666 
L 2450 531 
L 3481 531 
L 3481 0 
L 794 0 
L 794 531 
z
" transform="scale(0.015625)"/>
        <path id="DejaVuSans-3a" d="M 750 794 
L 1409 794 
L 1409 0 
L 750 0 
L 750 794 
z
M 750 3309 
L 1409 3309 
L 1409 2516 
L 750 2516 
L 750 3309 
z
" transform="scale(0.015625)"/>
        <path id="DejaVuSans-35" d="M 691 4666 
L 3169 4666 
L 3169 4134 
L 1269 4134 
L 1269 2991 
Q 1406 3038 1543 3061 
Q 1681 3084 1819 3084 
Q 2600 3084 3056 2656 
Q 3513 2228 3513 1497 
Q 3513 744 3044 326 
Q 2575 -91 1722 -91 
Q 1428 -91 1123 -41 
Q 819 9 494 109 
L 494 744 
Q 775 591 1075 516 
Q 1375 441 1709 441 
Q 2250 441 2565 725 
Q 2881 1009 2881 1497 
Q 2881 1984 2565 2268 
Q 2250 2553 1709 2553 
Q 1456 2553 1204 2497 
Q 953 2441 691 2322 
L 691 4666 
z
" transform="scale(0.015625)"/>
        <path id="DejaVuSans-36" d="M 2113 2584 
Q 1688 2584 1439 2293 
Q 1191 2003 1191 1497 
Q 1191 994 1439 701 
Q 1688 409 2113 409 
Q 2538 409 2786 701 
Q 3034 994 3034 1497 
Q 3034 2003 2786 2293 
Q 2538 2584 2113 2584 
z
M 3366 4563 
L 3366 3988 
Q 3128 4100 2886 4159 
Q 2644 4219 2406 4219 
Q 1781 4219 1451 3797 
Q 1122 3375 1075 2522 
Q 1259 2794 1537 2939 
Q 1816 3084 2150 3084 
Q 2853 3084 3261 2657 
Q 3669 2231 3669 1497 
Q 3669 778 3244 343 
Q 2819 -91 2113 -91 
Q 1303 -91 875 529 
Q 447 1150 447 2328 
Q 447 3434 972 4092 
Q 1497 4750 2381 4750 
Q 2619 4750 2861 4703 
Q 3103 4656 3366 4563 
z
" transform="scale(0.015625)"/>
       </defs>
       <use xlink:href="#DejaVuSans-31"/>
       <use xlink:href="#DejaVuSans-31" x="63.623047"/>
       <use xlink:href="#DejaVuSans-3a" x="127.246094"/>
       <use xlink:href="#DejaVuSans-31" x="160.9375"/>
       <use xlink:href="#DejaVuSans-31" x="224.560547"/>
       <use xlink:href="#DejaVuSans-3a" x="288.183594"/>
       <use xlink:href="#DejaVuSans-35" x="321.875"/>
       <use xlink:href="#DejaVuSans-36" x="385.498047"/>
      </g>
     </g>
    </g>
    <g id="xtick_2">
     <g id="line2d_3">
      <path d="M 201.735417 528.5575 
L 201.735417 39.3575 
" clip-path="url(#p7dc22beb7f)" style="fill: none; stroke: #b0b0b0; stroke-opacity: 0.3; stroke-width: 0.8; stroke-linecap: square"/>
     </g>
     <g id="line2d_4">
      <g>
       <use xlink:href="#m00afbbfdb2" x="201.735417" y="528.5575" style="stroke: #000000; stroke-width: 0.8"/>
      </g>
     </g>
     <g id="text_2">
      <!-- 11:12:40 -->
      <g transform="translate(179.279167 543.155937) scale(0.1 -0.1)">
       <defs>
        <path id="DejaVuSans-32" d="M 1228 531 
L 3431 531 
L 3431 0 
L 469 0 
L 469 531 
Q 828 903 1448 1529 
Q 2069 2156 2228 2338 
Q 2531 2678 2651 2914 
Q 2772 3150 2772 3378 
Q 2772 3750 2511 3984 
Q 2250 4219 1831 4219 
Q 1534 4219 1204 4116 
Q 875 4013 500 3803 
L 500 4441 
Q 881 4594 1212 4672 
Q 1544 4750 1819 4750 
Q 2544 4750 2975 4387 
Q 3406 4025 3406 3419 
Q 3406 3131 3298 2873 
Q 3191 2616 2906 2266 
Q 2828 2175 2409 1742 
Q 1991 1309 1228 531 
z
" transform="scale(0.015625)"/>
        <path id="DejaVuSans-34" d="M 2419 4116 
L 825 1625 
L 2419 1625 
L 2419 4116 
z
M 2253 4666 
L 3047 4666 
L 3047 1625 
L 3713 1625 
L 3713 1100 
L 3047 1100 
L 3047 0 
L 2419 0 
L 2419 1100 
L 313 1100 
L 313 1709 
L 2253 4666 
z
" transform="scale(0.015625)"/>
        <path id="DejaVuSans-30" d="M 2034 4250 
Q 1547 4250 1301 3770 
Q 1056 3291 1056 2328 
Q 1056 1369 1301 889 
Q 1547 409 2034 409 
Q 2525 409 2770 889 
Q 3016 1369 3016 2328 
Q 3016 3291 2770 3770 
Q 2525 4250 2034 4250 
z
M 2034 4750 
Q 2819 4750 3233 4129 
Q 3647 3509 3647 2328 
Q 3647 1150 3233 529 
Q 2819 -91 2034 -91 
Q 1250 -91 836 529 
Q 422 1150 422 2328 
Q 422 3509 836 4129 
Q 1250 4750 2034 4750 
z
" transform="scale(0.015625)"/>
       </defs>
       <use xlink:href="#DejaVuSans-31"/>
       <use xlink:href="#DejaVuSans-31" x="63.623047"/>
       <use xlink:href="#DejaVuSans-3a" x="127.246094"/>
       <use xlink:href="#DejaVuSans-31" x="160.9375"/>
       <use xlink:href="#DejaVuSans-32" x="224.560547"/>
       <use xlink:href="#DejaVuSans-3a" x="288.183594"/>
       <use xlink:href="#DejaVuSans-34" x="321.875"/>
       <use xlink:href="#DejaVuSans-30" x="385.498047"/>
      </g>
     </g>
    </g>
    <g id="xtick_3">
     <g id="line2d_5">
      <path d="M 331.514856 528.5575 
L 331.514856 39.3575 
" clip-path="url(#p7dc22beb7f)" style="fill: none; stroke: #b0b0b0; stroke-opacity: 0.3; stroke-width: 0.8; stroke-linecap: square"/>
     </g>
     <g id="line2d_6">
      <g>
       <use xlink:href="#m00afbbfdb2" x="331.514856" y="528.5575" style="stroke: #000000; stroke-width: 0.8"/>
      </g>
     </g>
     <g id="text_3">
      <!-- 11:13:32 -->
      <g transform="translate(309.058606 543.155937) scale(0.1 -0.1)">
       <defs>
        <path id="DejaVuSans-33" d="M 2597 2516 
Q 3050 2419 3304 2112 
Q 3559 1806 3559 1356 
Q 3559 666 3084 287 
Q 2609 -91 1734 -91 
Q 1441 -91 1130 -33 
Q 819 25 488 141 
L 488 750 
Q 750 597 1062 519 
Q 1375 441 1716 441 
Q 2309 441 2620 675 
Q 2931 909 2931 1356 
Q 2931 1769 2642 2001 
Q 2353 2234 1838 2234 
L 1294 2234 
L 1294 2753 
L 1863 2753 
Q 2328 2753 2575 2939 
Q 2822 3125 2822 3475 
Q 2822 3834 2567 4026 
Q 2313 4219 1838 4219 
Q 1578 4219 1281 4162 
Q 984 4106 628 3988 
L 628 4550 
Q 988 4650 1302 4700 
Q 1616 4750 1894 4750 
Q 2613 4750 3031 4423 
Q 3450 4097 3450 3541 
Q 3450 3153 3228 2886 
Q 3006 2619 2597 2516 
z
" transform="scale(0.015625)"/>
       </defs>
       <use xlink:href="#DejaVuSans-31"/>
       <use xlink:href="#DejaVuSans-31" x="63.623047"/>
       <use xlink:href="#DejaVuSans-3a" x="127.246094"/>
       <use xlink:href="#DejaVuSans-31" x="160.9375"/>
       <use xlink:href="#DejaVuSans-33" x="224.560547"/>
       <use xlink:href="#DejaVuSans-3a" x="288.183594"/>
       <use xlink:href="#DejaVuSans-33" x="321.875"/>
       <use xlink:href="#DejaVuSans-32" x="385.498047"/>
      </g>
     </g>
    </g>
    <g id="xtick_4">
     <g id="line2d_7">
      <path d="M 443.823987 528.5575 
L 443.823987 39.3575 
" clip-path="url(#p7dc22beb7f)" style="fill: none; stroke: #b0b0b0; stroke-opacity: 0.3; stroke-width: 0.8; stroke-linecap: square"/>
     </g>
     <g id="line2d_8">
      <g>
       <use xlink:href="#m00afbbfdb2" x="443.823987" y="528.5575" style="stroke: #000000; stroke-width: 0.8"/>
      </g>
     </g>
     <g id="text_4">
      <!-- 11:14:17 -->
      <g transform="translate(421.367737 543.155937) scale(0.1 -0.1)">
       <defs>
        <path id="DejaVuSans-37" d="M 525 4666 
L 3525 4666 
L 3525 4397 
L 1831 0 
L 1172 0 
L 2766 4134 
L 525 4134 
L 525 4666 
z
" transform="scale(0.015625)"/>
       </defs>
       <use xlink:href="#DejaVuSans-31"/>
       <use xlink:href="#DejaVuSans-31" x="63.623047"/>
       <use xlink:href="#DejaVuSans-3a" x="127.246094"/>
       <use xlink:href="#DejaVuSans-31" x="160.9375"/>
       <use xlink:href="#DejaVuSans-34" x="224.560547"/>
       <use xlink:href="#DejaVuSans-3a" x="288.183594"/>
       <use xlink:href="#DejaVuSans-31" x="321.875"/>
       <use xlink:href="#DejaVuSans-37" x="385.498047"/>
      </g>
     </g>
    </g>
    <g id="xtick_5">
     <g id="line2d_9">
      <path d="M 573.603427 528.5575 
L 573.603427 39.3575 
" clip-path="url(#p7dc22beb7f)" style="fill: none; stroke: #b0b0b0; stroke-opacity: 0.3; stroke-width: 0.8; stroke-linecap: square"/>
     </g>
     <g id="line2d_10">
      <g>
       <use xlink:href="#m00afbbfdb2" x="573.603427" y="528.5575" style="stroke: #000000; stroke-width: 0.8"/>
      </g>
     </g>
     <g id="text_5">
      <!-- 11:15:09 -->
      <g transform="translate(551.147177 543.155937) scale(0.1 -0.1)">
       <defs>
        <path id="DejaVuSans-39" d="M 703 97 
L 703 672 
Q 941 559 1184 500 
Q 1428 441 1663 441 
Q 2288 441 2617 861 
Q 2947 1281 2994 2138 
Q 2813 1869 2534 1725 
Q 2256 1581 1919 1581 
Q 1219 1581 811 2004 
Q 403 2428 403 3163 
Q 403 3881 828 4315 
Q 1253 4750 1959 4750 
Q 2769 4750 3195 4129 
Q 3622 3509 3622 2328 
Q 3622 1225 3098 567 
Q 2575 -91 1691 -91 
Q 1453 -91 1209 -44 
Q 966 3 703 97 
z
M 1959 2075 
Q 2384 2075 2632 2365 
Q 2881 2656 2881 3163 
Q 2881 3666 2632 3958 
Q 2384 4250 1959 4250 
Q 1534 4250 1286 3958 
Q 1038 3666 1038 3163 
Q 1038 2656 1286 2365 
Q 1534 2075 1959 2075 
z
" transform="scale(0.015625)"/>
       </defs>
       <use xlink:href="#DejaVuSans-31"/>
       <use xlink:href="#DejaVuSans-31" x="63.623047"/>
       <use xlink:href="#DejaVuSans-3a" x="127.246094"/>
       <use xlink:href="#DejaVuSans-31" x="160.9375"/>
       <use xlink:href="#DejaVuSans-35" x="224.560547"/>
       <use xlink:href="#DejaVuSans-3a" x="288.183594"/>
       <use xlink:href="#DejaVuSans-30" x="321.875"/>
       <use xlink:href="#DejaVuSans-39" x="385.498047"/>
      </g>
     </g>
    </g>
    <g id="xtick_6">
     <g id="line2d_11">
      <path d="M 688.408316 528.5575 
L 688.408316 39.3575 
" clip-path="url(#p7dc22beb7f)" style="fill: none; stroke: #b0b0b0; stroke-opacity: 0.3; stroke-width: 0.8; stroke-linecap: square"/>
     </g>
     <g id="line2d_12">
      <g>
       <use xlink:href="#m00afbbfdb2" x="688.408316" y="528.5575" style="stroke: #000000; stroke-width: 0.8"/>
      </g>
     </g>
     <g id="text_6">
      <!-- 11:15:55 -->
      <g transform="translate(665.952066 543.155937) scale(0.1 -0.1)">
       <use xlink:href="#DejaVuSans-31"/>
       <use xlink:href="#DejaVuSans-31" x="63.623047"/>
       <use xlink:href="#DejaVuSans-3a" x="127.246094"/>
       <use xlink:href="#DejaVuSans-31" x="160.9375"/>
       <use xlink:href="#DejaVuSans-35" x="224.560547"/>
       <use xlink:href="#DejaVuSans-3a" x="288.183594"/>
       <use xlink:href="#DejaVuSans-35" x="321.875"/>
       <use xlink:href="#DejaVuSans-35" x="385.498047"/>
      </g>
     </g>
    </g>
    <g id="xtick_7">
     <g id="line2d_13">
      <path d="M 818.187756 528.5575 
L 818.187756 39.3575 
" clip-path="url(#p7dc22beb7f)" style="fill: none; stroke: #b0b0b0; stroke-opacity: 0.3; stroke-width: 0.8; stroke-linecap: square"/>
     </g>
     <g id="line2d_14">
      <g>
       <use xlink:href="#m00afbbfdb2" x="818.187756" y="528.5575" style="stroke: #000000; stroke-width: 0.8"/>
      </g>
     </g>
     <g id="text_7">
      <!-- 11:16:47 -->
      <g transform="translate(795.731506 543.155937) scale(0.1 -0.1)">
       <use xlink:href="#DejaVuSans-31"/>
       <use xlink:href="#DejaVuSans-31" x="63.623047"/>
       <use xlink:href="#DejaVuSans-3a" x="127.246094"/>
       <use xlink:href="#DejaVuSans-31" x="160.9375"/>
       <use xlink:href="#DejaVuSans-36" x="224.560547"/>
       <use xlink:href="#DejaVuSans-3a" x="288.183594"/>
       <use xlink:href="#DejaVuSans-34" x="321.875"/>
       <use xlink:href="#DejaVuSans-37" x="385.498047"/>
      </g>
     </g>
    </g>
    <g id="xtick_8">
     <g id="line2d_15">
      <path d="M 930.496886 528.5575 
L 930.496886 39.3575 
" clip-path="url(#p7dc22beb7f)" style="fill: none; stroke: #b0b0b0; stroke-opacity: 0.3; stroke-width: 0.8; stroke-linecap: square"/>
     </g>
     <g id="line2d_16">
      <g>
       <use xlink:href="#m00afbbfdb2" x="930.496886" y="528.5575" style="stroke: #000000; stroke-width: 0.8"/>
      </g>
     </g>
     <g id="text_8">
      <!-- 11:17:32 -->
      <g transform="translate(908.040636 543.155937) scale(0.1 -0.1)">
       <use xlink:href="#DejaVuSans-31"/>
       <use xlink:href="#DejaVuSans-31" x="63.623047"/>
       <use xlink:href="#DejaVuSans-3a" x="127.246094"/>
       <use xlink:href="#DejaVuSans-31" x="160.9375"/>
       <use xlink:href="#DejaVuSans-37" x="224.560547"/>
       <use xlink:href="#DejaVuSans-3a" x="288.183594"/>
       <use xlink:href="#DejaVuSans-33" x="321.875"/>
       <use xlink:href="#DejaVuSans-32" x="385.498047"/>
      </g>
     </g>
    </g>
    <g id="xtick_9">
     <g id="line2d_17">
      <path d="M 950.462954 528.5575 
L 950.462954 39.3575 
" clip-path="url(#p7dc22beb7f)" style="fill: none; stroke: #b0b0b0; stroke-opacity: 0.3; stroke-width: 0.8; stroke-linecap: square"/>
     </g>
     <g id="line2d_18">
      <g>
       <use xlink:href="#m00afbbfdb2" x="950.462954" y="528.5575" style="stroke: #000000; stroke-width: 0.8"/>
      </g>
     </g>
     <g id="text_9">
      <!-- 11:17:40 -->
      <g transform="translate(928.006704 543.155937) scale(0.1 -0.1)">
       <use xlink:href="#DejaVuSans-31"/>
       <use xlink:href="#DejaVuSans-31" x="63.623047"/>
       <use xlink:href="#DejaVuSans-3a" x="127.246094"/>
       <use xlink:href="#DejaVuSans-31" x="160.9375"/>
       <use xlink:href="#DejaVuSans-37" x="224.560547"/>
       <use xlink:href="#DejaVuSans-3a" x="288.183594"/>
       <use xlink:href="#DejaVuSans-34" x="321.875"/>
       <use xlink:href="#DejaVuSans-30" x="385.498047"/>
      </g>
     </g>
    </g>
    <g id="text_10">
     <!-- Timestamp -->
     <g transform="translate(487.704063 558.35375) scale(0.12 -0.12)">
      <defs>
       <path id="DejaVuSans-54" d="M -19 4666 
L 3928 4666 
L 3928 4134 
L 2272 4134 
L 2272 0 
L 1638 0 
L 1638 4134 
L -19 4134 
L -19 4666 
z
" transform="scale(0.015625)"/>
       <path id="DejaVuSans-69" d="M 603 3500 
L 1178 3500 
L 1178 0 
L 603 0 
L 603 3500 
z
M 603 4863 
L 1178 4863 
L 1178 4134 
L 603 4134 
L 603 4863 
z
" transform="scale(0.015625)"/>
       <path id="DejaVuSans-6d" d="M 3328 2828 
Q 3544 3216 3844 3400 
Q 4144 3584 4550 3584 
Q 5097 3584 5394 3201 
Q 5691 2819 5691 2113 
L 5691 0 
L 5113 0 
L 5113 2094 
Q 5113 2597 4934 2840 
Q 4756 3084 4391 3084 
Q 3944 3084 3684 2787 
Q 3425 2491 3425 1978 
L 3425 0 
L 2847 0 
L 2847 2094 
Q 2847 2600 2669 2842 
Q 2491 3084 2119 3084 
Q 1678 3084 1418 2786 
Q 1159 2488 1159 1978 
L 1159 0 
L 581 0 
L 581 3500 
L 1159 3500 
L 1159 2956 
Q 1356 3278 1631 3431 
Q 1906 3584 2284 3584 
Q 2666 3584 2933 3390 
Q 3200 3197 3328 2828 
z
" transform="scale(0.015625)"/>
       <path id="DejaVuSans-65" d="M 3597 1894 
L 3597 1613 
L 953 1613 
Q 991 1019 1311 708 
Q 1631 397 2203 397 
Q 2534 397 2845 478 
Q 3156 559 3463 722 
L 3463 178 
Q 3153 47 2828 -22 
Q 2503 -91 2169 -91 
Q 1331 -91 842 396 
Q 353 884 353 1716 
Q 353 2575 817 3079 
Q 1281 3584 2069 3584 
Q 2775 3584 3186 3129 
Q 3597 2675 3597 1894 
z
M 3022 2063 
Q 3016 2534 2758 2815 
Q 2500 3097 2075 3097 
Q 1594 3097 1305 2825 
Q 1016 2553 972 2059 
L 3022 2063 
z
" transform="scale(0.015625)"/>
       <path id="DejaVuSans-73" d="M 2834 3397 
L 2834 2853 
Q 2591 2978 2328 3040 
Q 2066 3103 1784 3103 
Q 1356 3103 1142 2972 
Q 928 2841 928 2578 
Q 928 2378 1081 2264 
Q 1234 2150 1697 2047 
L 1894 2003 
Q 2506 1872 2764 1633 
Q 3022 1394 3022 966 
Q 3022 478 2636 193 
Q 2250 -91 1575 -91 
Q 1294 -91 989 -36 
Q 684 19 347 128 
L 347 722 
Q 666 556 975 473 
Q 1284 391 1588 391 
Q 1994 391 2212 530 
Q 2431 669 2431 922 
Q 2431 1156 2273 1281 
Q 2116 1406 1581 1522 
L 1381 1569 
Q 847 1681 609 1914 
Q 372 2147 372 2553 
Q 372 3047 722 3315 
Q 1072 3584 1716 3584 
Q 2034 3584 2315 3537 
Q 2597 3491 2834 3397 
z
" transform="scale(0.015625)"/>
       <path id="DejaVuSans-74" d="M 1172 4494 
L 1172 3500 
L 2356 3500 
L 2356 3053 
L 1172 3053 
L 1172 1153 
Q 1172 725 1289 603 
Q 1406 481 1766 481 
L 2356 481 
L 2356 0 
L 1766 0 
Q 1100 0 847 248 
Q 594 497 594 1153 
L 594 3053 
L 172 3053 
L 172 3500 
L 594 3500 
L 594 4494 
L 1172 4494 
z
" transform="scale(0.015625)"/>
       <path id="DejaVuSans-61" d="M 2194 1759 
Q 1497 1759 1228 1600 
Q 959 1441 959 1056 
Q 959 750 1161 570 
Q 1363 391 1709 391 
Q 2188 391 2477 730 
Q 2766 1069 2766 1631 
L 2766 1759 
L 2194 1759 
z
M 3341 1997 
L 3341 0 
L 2766 0 
L 2766 531 
Q 2569 213 2275 61 
Q 1981 -91 1556 -91 
Q 1019 -91 701 211 
Q 384 513 384 1019 
Q 384 1609 779 1909 
Q 1175 2209 1959 2209 
L 2766 2209 
L 2766 2266 
Q 2766 2663 2505 2880 
Q 2244 3097 1772 3097 
Q 1472 3097 1187 3025 
Q 903 2953 641 2809 
L 641 3341 
Q 956 3463 1253 3523 
Q 1550 3584 1831 3584 
Q 2591 3584 2966 3190 
Q 3341 2797 3341 1997 
z
" transform="scale(0.015625)"/>
       <path id="DejaVuSans-70" d="M 1159 525 
L 1159 -1331 
L 581 -1331 
L 581 3500 
L 1159 3500 
L 1159 2969 
Q 1341 3281 1617 3432 
Q 1894 3584 2278 3584 
Q 2916 3584 3314 3078 
Q 3713 2572 3713 1747 
Q 3713 922 3314 415 
Q 2916 -91 2278 -91 
Q 1894 -91 1617 61 
Q 1341 213 1159 525 
z
M 3116 1747 
Q 3116 2381 2855 2742 
Q 2594 3103 2138 3103 
Q 1681 3103 1420 2742 
Q 1159 2381 1159 1747 
Q 1159 1113 1420 752 
Q 1681 391 2138 391 
Q 2594 391 2855 752 
Q 3116 1113 3116 1747 
z
" transform="scale(0.015625)"/>
      </defs>
      <use xlink:href="#DejaVuSans-54"/>
      <use xlink:href="#DejaVuSans-69" x="57.958984"/>
      <use xlink:href="#DejaVuSans-6d" x="85.742188"/>
      <use xlink:href="#DejaVuSans-65" x="183.154297"/>
      <use xlink:href="#DejaVuSans-73" x="244.677734"/>
      <use xlink:href="#DejaVuSans-74" x="296.777344"/>
      <use xlink:href="#DejaVuSans-61" x="335.986328"/>
      <use xlink:href="#DejaVuSans-6d" x="397.265625"/>
      <use xlink:href="#DejaVuSans-70" x="494.677734"/>
     </g>
    </g>
   </g>
   <g id="matplotlib.axis_2">
    <g id="ytick_1">
     <g id="line2d_19">
      <path d="M 48.995 453.039913 
L 993.39 453.039913 
" clip-path="url(#p7dc22beb7f)" style="fill: none; stroke: #b0b0b0; stroke-opacity: 0.3; stroke-width: 0.8; stroke-linecap: square"/>
     </g>
     <g id="line2d_20">
      <defs>
       <path id="mac7b46406c" d="M 0 0 
L -3.5 0 
" style="stroke: #000000; stroke-width: 0.8"/>
      </defs>
      <g>
       <use xlink:href="#mac7b46406c" x="48.995" y="453.039913" style="stroke: #000000; stroke-width: 0.8"/>
      </g>
     </g>
     <g id="text_11">
      <!-- 50 -->
      <g transform="translate(29.27 456.839131) scale(0.1 -0.1)">
       <use xlink:href="#DejaVuSans-35"/>
       <use xlink:href="#DejaVuSans-30" x="63.623047"/>
      </g>
     </g>
    </g>
    <g id="ytick_2">
     <g id="line2d_21">
      <path d="M 48.995 357.0031 
L 993.39 357.0031 
" clip-path="url(#p7dc22beb7f)" style="fill: none; stroke: #b0b0b0; stroke-opacity: 0.3; stroke-width: 0.8; stroke-linecap: square"/>
     </g>
     <g id="line2d_22">
      <g>
       <use xlink:href="#mac7b46406c" x="48.995" y="357.0031" style="stroke: #000000; stroke-width: 0.8"/>
      </g>
     </g>
     <g id="text_12">
      <!-- 100 -->
      <g transform="translate(22.9075 360.802319) scale(0.1 -0.1)">
       <use xlink:href="#DejaVuSans-31"/>
       <use xlink:href="#DejaVuSans-30" x="63.623047"/>
       <use xlink:href="#DejaVuSans-30" x="127.246094"/>
      </g>
     </g>
    </g>
    <g id="ytick_3">
     <g id="line2d_23">
      <path d="M 48.995 260.966287 
L 993.39 260.966287 
" clip-path="url(#p7dc22beb7f)" style="fill: none; stroke: #b0b0b0; stroke-opacity: 0.3; stroke-width: 0.8; stroke-linecap: square"/>
     </g>
     <g id="line2d_24">
      <g>
       <use xlink:href="#mac7b46406c" x="48.995" y="260.966287" style="stroke: #000000; stroke-width: 0.8"/>
      </g>
     </g>
     <g id="text_13">
      <!-- 150 -->
      <g transform="translate(22.9075 264.765506) scale(0.1 -0.1)">
       <use xlink:href="#DejaVuSans-31"/>
       <use xlink:href="#DejaVuSans-35" x="63.623047"/>
       <use xlink:href="#DejaVuSans-30" x="127.246094"/>
      </g>
     </g>
    </g>
    <g id="ytick_4">
     <g id="line2d_25">
      <path d="M 48.995 164.929474 
L 993.39 164.929474 
" clip-path="url(#p7dc22beb7f)" style="fill: none; stroke: #b0b0b0; stroke-opacity: 0.3; stroke-width: 0.8; stroke-linecap: square"/>
     </g>
     <g id="line2d_26">
      <g>
       <use xlink:href="#mac7b46406c" x="48.995" y="164.929474" style="stroke: #000000; stroke-width: 0.8"/>
      </g>
     </g>
     <g id="text_14">
      <!-- 200 -->
      <g transform="translate(22.9075 168.728693) scale(0.1 -0.1)">
       <use xlink:href="#DejaVuSans-32"/>
       <use xlink:href="#DejaVuSans-30" x="63.623047"/>
       <use xlink:href="#DejaVuSans-30" x="127.246094"/>
      </g>
     </g>
    </g>
    <g id="ytick_5">
     <g id="line2d_27">
      <path d="M 48.995 68.892661 
L 993.39 68.892661 
" clip-path="url(#p7dc22beb7f)" style="fill: none; stroke: #b0b0b0; stroke-opacity: 0.3; stroke-width: 0.8; stroke-linecap: square"/>
     </g>
     <g id="line2d_28">
      <g>
       <use xlink:href="#mac7b46406c" x="48.995" y="68.892661" style="stroke: #000000; stroke-width: 0.8"/>
      </g>
     </g>
     <g id="text_15">
      <!-- 250 -->
      <g transform="translate(22.9075 72.69188) scale(0.1 -0.1)">
       <use xlink:href="#DejaVuSans-32"/>
       <use xlink:href="#DejaVuSans-35" x="63.623047"/>
       <use xlink:href="#DejaVuSans-30" x="127.246094"/>
      </g>
     </g>
    </g>
    <g id="text_16">
     <!-- Memory Usage (MiB) -->
     <g transform="translate(16.318125 354.361875) rotate(-90) scale(0.12 -0.12)">
      <defs>
       <path id="DejaVuSans-Bold-4d" d="M 588 4666 
L 2119 4666 
L 3181 2169 
L 4250 4666 
L 5778 4666 
L 5778 0 
L 4641 0 
L 4641 3413 
L 3566 897 
L 2803 897 
L 1728 3413 
L 1728 0 
L 588 0 
L 588 4666 
z
" transform="scale(0.015625)"/>
       <path id="DejaVuSans-Bold-65" d="M 4031 1759 
L 4031 1441 
L 1416 1441 
Q 1456 1047 1700 850 
Q 1944 653 2381 653 
Q 2734 653 3104 758 
Q 3475 863 3866 1075 
L 3866 213 
Q 3469 63 3072 -14 
Q 2675 -91 2278 -91 
Q 1328 -91 801 392 
Q 275 875 275 1747 
Q 275 2603 792 3093 
Q 1309 3584 2216 3584 
Q 3041 3584 3536 3087 
Q 4031 2591 4031 1759 
z
M 2881 2131 
Q 2881 2450 2695 2645 
Q 2509 2841 2209 2841 
Q 1884 2841 1681 2658 
Q 1478 2475 1428 2131 
L 2881 2131 
z
" transform="scale(0.015625)"/>
       <path id="DejaVuSans-Bold-6d" d="M 3781 2919 
Q 3994 3244 4286 3414 
Q 4578 3584 4928 3584 
Q 5531 3584 5847 3212 
Q 6163 2841 6163 2131 
L 6163 0 
L 5038 0 
L 5038 1825 
Q 5041 1866 5042 1909 
Q 5044 1953 5044 2034 
Q 5044 2406 4934 2573 
Q 4825 2741 4581 2741 
Q 4263 2741 4089 2478 
Q 3916 2216 3909 1719 
L 3909 0 
L 2784 0 
L 2784 1825 
Q 2784 2406 2684 2573 
Q 2584 2741 2328 2741 
Q 2006 2741 1831 2477 
Q 1656 2213 1656 1722 
L 1656 0 
L 531 0 
L 531 3500 
L 1656 3500 
L 1656 2988 
Q 1863 3284 2130 3434 
Q 2397 3584 2719 3584 
Q 3081 3584 3359 3409 
Q 3638 3234 3781 2919 
z
" transform="scale(0.015625)"/>
       <path id="DejaVuSans-Bold-6f" d="M 2203 2784 
Q 1831 2784 1636 2517 
Q 1441 2250 1441 1747 
Q 1441 1244 1636 976 
Q 1831 709 2203 709 
Q 2569 709 2762 976 
Q 2956 1244 2956 1747 
Q 2956 2250 2762 2517 
Q 2569 2784 2203 2784 
z
M 2203 3584 
Q 3106 3584 3614 3096 
Q 4122 2609 4122 1747 
Q 4122 884 3614 396 
Q 3106 -91 2203 -91 
Q 1297 -91 786 396 
Q 275 884 275 1747 
Q 275 2609 786 3096 
Q 1297 3584 2203 3584 
z
" transform="scale(0.015625)"/>
       <path id="DejaVuSans-Bold-72" d="M 3138 2547 
Q 2991 2616 2845 2648 
Q 2700 2681 2553 2681 
Q 2122 2681 1889 2404 
Q 1656 2128 1656 1613 
L 1656 0 
L 538 0 
L 538 3500 
L 1656 3500 
L 1656 2925 
Q 1872 3269 2151 3426 
Q 2431 3584 2822 3584 
Q 2878 3584 2943 3579 
Q 3009 3575 3134 3559 
L 3138 2547 
z
" transform="scale(0.015625)"/>
       <path id="DejaVuSans-Bold-79" d="M 78 3500 
L 1197 3500 
L 2138 1125 
L 2938 3500 
L 4056 3500 
L 2584 -331 
Q 2363 -916 2067 -1148 
Q 1772 -1381 1288 -1381 
L 641 -1381 
L 641 -647 
L 991 -647 
Q 1275 -647 1404 -556 
Q 1534 -466 1606 -231 
L 1638 -134 
L 78 3500 
z
" transform="scale(0.015625)"/>
       <path id="DejaVuSans-Bold-20" transform="scale(0.015625)"/>
       <path id="DejaVuSans-Bold-55" d="M 588 4666 
L 1791 4666 
L 1791 1869 
Q 1791 1291 1980 1042 
Q 2169 794 2597 794 
Q 3028 794 3217 1042 
Q 3406 1291 3406 1869 
L 3406 4666 
L 4609 4666 
L 4609 1869 
Q 4609 878 4112 393 
Q 3616 -91 2597 -91 
Q 1581 -91 1084 393 
Q 588 878 588 1869 
L 588 4666 
z
" transform="scale(0.015625)"/>
       <path id="DejaVuSans-Bold-73" d="M 3272 3391 
L 3272 2541 
Q 2913 2691 2578 2766 
Q 2244 2841 1947 2841 
Q 1628 2841 1473 2761 
Q 1319 2681 1319 2516 
Q 1319 2381 1436 2309 
Q 1553 2238 1856 2203 
L 2053 2175 
Q 2913 2066 3209 1816 
Q 3506 1566 3506 1031 
Q 3506 472 3093 190 
Q 2681 -91 1863 -91 
Q 1516 -91 1145 -36 
Q 775 19 384 128 
L 384 978 
Q 719 816 1070 734 
Q 1422 653 1784 653 
Q 2113 653 2278 743 
Q 2444 834 2444 1013 
Q 2444 1163 2330 1236 
Q 2216 1309 1875 1350 
L 1678 1375 
Q 931 1469 631 1722 
Q 331 1975 331 2491 
Q 331 3047 712 3315 
Q 1094 3584 1881 3584 
Q 2191 3584 2531 3537 
Q 2872 3491 3272 3391 
z
" transform="scale(0.015625)"/>
       <path id="DejaVuSans-Bold-61" d="M 2106 1575 
Q 1756 1575 1579 1456 
Q 1403 1338 1403 1106 
Q 1403 894 1545 773 
Q 1688 653 1941 653 
Q 2256 653 2472 879 
Q 2688 1106 2688 1447 
L 2688 1575 
L 2106 1575 
z
M 3816 1997 
L 3816 0 
L 2688 0 
L 2688 519 
Q 2463 200 2181 54 
Q 1900 -91 1497 -91 
Q 953 -91 614 226 
Q 275 544 275 1050 
Q 275 1666 698 1953 
Q 1122 2241 2028 2241 
L 2688 2241 
L 2688 2328 
Q 2688 2594 2478 2717 
Q 2269 2841 1825 2841 
Q 1466 2841 1156 2769 
Q 847 2697 581 2553 
L 581 3406 
Q 941 3494 1303 3539 
Q 1666 3584 2028 3584 
Q 2975 3584 3395 3211 
Q 3816 2838 3816 1997 
z
" transform="scale(0.015625)"/>
       <path id="DejaVuSans-Bold-67" d="M 2919 594 
Q 2688 288 2409 144 
Q 2131 0 1766 0 
Q 1125 0 706 504 
Q 288 1009 288 1791 
Q 288 2575 706 3076 
Q 1125 3578 1766 3578 
Q 2131 3578 2409 3434 
Q 2688 3291 2919 2981 
L 2919 3500 
L 4044 3500 
L 4044 353 
Q 4044 -491 3511 -936 
Q 2978 -1381 1966 -1381 
Q 1638 -1381 1331 -1331 
Q 1025 -1281 716 -1178 
L 716 -306 
Q 1009 -475 1290 -558 
Q 1572 -641 1856 -641 
Q 2406 -641 2662 -400 
Q 2919 -159 2919 353 
L 2919 594 
z
M 2181 2772 
Q 1834 2772 1640 2515 
Q 1447 2259 1447 1791 
Q 1447 1309 1634 1061 
Q 1822 813 2181 813 
Q 2531 813 2725 1069 
Q 2919 1325 2919 1791 
Q 2919 2259 2725 2515 
Q 2531 2772 2181 2772 
z
" transform="scale(0.015625)"/>
       <path id="DejaVuSans-Bold-28" d="M 2413 -844 
L 1484 -844 
Q 1006 -72 778 623 
Q 550 1319 550 2003 
Q 550 2688 779 3389 
Q 1009 4091 1484 4856 
L 2413 4856 
Q 2013 4116 1813 3408 
Q 1613 2700 1613 2009 
Q 1613 1319 1811 609 
Q 2009 -100 2413 -844 
z
" transform="scale(0.015625)"/>
       <path id="DejaVuSans-Bold-69" d="M 538 3500 
L 1656 3500 
L 1656 0 
L 538 0 
L 538 3500 
z
M 538 4863 
L 1656 4863 
L 1656 3950 
L 538 3950 
L 538 4863 
z
" transform="scale(0.015625)"/>
       <path id="DejaVuSans-Bold-42" d="M 2456 2859 
Q 2741 2859 2887 2984 
Q 3034 3109 3034 3353 
Q 3034 3594 2887 3720 
Q 2741 3847 2456 3847 
L 1791 3847 
L 1791 2859 
L 2456 2859 
z
M 2497 819 
Q 2859 819 3042 972 
Q 3225 1125 3225 1434 
Q 3225 1738 3044 1889 
Q 2863 2041 2497 2041 
L 1791 2041 
L 1791 819 
L 2497 819 
z
M 3616 2497 
Q 4003 2384 4215 2081 
Q 4428 1778 4428 1338 
Q 4428 663 3972 331 
Q 3516 0 2584 0 
L 588 0 
L 588 4666 
L 2394 4666 
Q 3366 4666 3802 4372 
Q 4238 4078 4238 3431 
Q 4238 3091 4078 2852 
Q 3919 2613 3616 2497 
z
" transform="scale(0.015625)"/>
       <path id="DejaVuSans-Bold-29" d="M 513 -844 
Q 913 -100 1113 609 
Q 1313 1319 1313 2009 
Q 1313 2700 1113 3408 
Q 913 4116 513 4856 
L 1441 4856 
Q 1916 4091 2145 3389 
Q 2375 2688 2375 2003 
Q 2375 1319 2147 623 
Q 1919 -72 1441 -844 
L 513 -844 
z
" transform="scale(0.015625)"/>
      </defs>
      <use xlink:href="#DejaVuSans-Bold-4d"/>
      <use xlink:href="#DejaVuSans-Bold-65" x="99.511719"/>
      <use xlink:href="#DejaVuSans-Bold-6d" x="167.333984"/>
      <use xlink:href="#DejaVuSans-Bold-6f" x="271.533203"/>
      <use xlink:href="#DejaVuSans-Bold-72" x="340.234375"/>
      <use xlink:href="#DejaVuSans-Bold-79" x="389.550781"/>
      <use xlink:href="#DejaVuSans-Bold-20" x="454.736328"/>
      <use xlink:href="#DejaVuSans-Bold-55" x="489.550781"/>
      <use xlink:href="#DejaVuSans-Bold-73" x="570.751953"/>
      <use xlink:href="#DejaVuSans-Bold-61" x="630.273438"/>
      <use xlink:href="#DejaVuSans-Bold-67" x="697.753906"/>
      <use xlink:href="#DejaVuSans-Bold-65" x="769.335938"/>
      <use xlink:href="#DejaVuSans-Bold-20" x="837.158203"/>
      <use xlink:href="#DejaVuSans-Bold-28" x="871.972656"/>
      <use xlink:href="#DejaVuSans-Bold-4d" x="917.675781"/>
      <use xlink:href="#DejaVuSans-Bold-69" x="1017.1875"/>
      <use xlink:href="#DejaVuSans-Bold-42" x="1051.464844"/>
      <use xlink:href="#DejaVuSans-Bold-29" x="1127.685547"/>
     </g>
    </g>
   </g>
   <g id="line2d_29">
    <path d="M 91.922045 459.954563 
L 109.392354 459.954563 
L 126.862663 459.954563 
L 144.332973 459.954563 
L 164.29904 459.916148 
L 181.769349 459.916148 
L 201.735417 459.896941 
L 219.205727 459.896941 
L 239.171794 360.921402 
L 256.642103 459.839319 
L 276.608171 459.800904 
L 294.07848 358.597311 
L 314.044548 459.781697 
L 331.514856 482.081445 
L 351.480924 358.808592 
L 371.446993 473.38051 
L 386.421543 473.342095 
L 406.38761 473.342095 
L 423.85792 473.30368 
L 443.823987 473.30368 
L 461.294296 473.30368 
L 481.260365 473.322887 
L 498.730674 473.322887 
L 518.696741 473.322887 
L 536.167049 473.322887 
L 556.133119 473.322887 
L 573.603427 473.322887 
L 593.569494 473.322887 
L 613.535562 473.322887 
L 631.005872 473.322887 
L 650.971939 473.322887 
L 668.442248 473.322887 
L 688.408316 473.322887 
L 705.878625 473.322887 
L 725.844693 473.322887 
L 743.315002 473.322887 
L 763.28107 473.322887 
L 780.751379 473.322887 
L 800.717447 473.322887 
L 818.187756 473.322887 
L 838.153823 473.322887 
L 855.624132 473.322887 
L 875.5902 473.322887 
L 893.06051 473.322887 
L 913.026577 473.322887 
L 930.496886 473.322887 
L 950.462954 473.322887 
" clip-path="url(#p7dc22beb7f)" style="fill: none; stroke: #e41a1c; stroke-opacity: 0.8; stroke-width: 2; stroke-linecap: square"/>
    <defs>
     <path id="m1f45622e3e" d="M 0 3 
C 0.795609 3 1.55874 2.683901 2.12132 2.12132 
C 2.683901 1.55874 3 0.795609 3 0 
C 3 -0.795609 2.683901 -1.55874 2.12132 -2.12132 
C 1.55874 -2.683901 0.795609 -3 0 -3 
C -0.795609 -3 -1.55874 -2.683901 -2.12132 -2.12132 
C -2.683901 -1.55874 -3 -0.795609 -3 0 
C -3 0.795609 -2.683901 1.55874 -2.12132 2.12132 
C -1.55874 2.683901 -0.795609 3 0 3 
z
" style="stroke: #e41a1c; stroke-opacity: 0.8; stroke-width: 2"/>
    </defs>
    <g clip-path="url(#p7dc22beb7f)">
     <use xlink:href="#m1f45622e3e" x="91.922045" y="459.954563" style="fill: #ffffff; fill-opacity: 0.8; stroke: #e41a1c; stroke-opacity: 0.8; stroke-width: 2"/>
     <use xlink:href="#m1f45622e3e" x="109.392354" y="459.954563" style="fill: #ffffff; fill-opacity: 0.8; stroke: #e41a1c; stroke-opacity: 0.8; stroke-width: 2"/>
     <use xlink:href="#m1f45622e3e" x="126.862663" y="459.954563" style="fill: #ffffff; fill-opacity: 0.8; stroke: #e41a1c; stroke-opacity: 0.8; stroke-width: 2"/>
     <use xlink:href="#m1f45622e3e" x="144.332973" y="459.954563" style="fill: #ffffff; fill-opacity: 0.8; stroke: #e41a1c; stroke-opacity: 0.8; stroke-width: 2"/>
     <use xlink:href="#m1f45622e3e" x="164.29904" y="459.916148" style="fill: #ffffff; fill-opacity: 0.8; stroke: #e41a1c; stroke-opacity: 0.8; stroke-width: 2"/>
     <use xlink:href="#m1f45622e3e" x="181.769349" y="459.916148" style="fill: #ffffff; fill-opacity: 0.8; stroke: #e41a1c; stroke-opacity: 0.8; stroke-width: 2"/>
     <use xlink:href="#m1f45622e3e" x="201.735417" y="459.896941" style="fill: #ffffff; fill-opacity: 0.8; stroke: #e41a1c; stroke-opacity: 0.8; stroke-width: 2"/>
     <use xlink:href="#m1f45622e3e" x="219.205727" y="459.896941" style="fill: #ffffff; fill-opacity: 0.8; stroke: #e41a1c; stroke-opacity: 0.8; stroke-width: 2"/>
     <use xlink:href="#m1f45622e3e" x="239.171794" y="360.921402" style="fill: #ffffff; fill-opacity: 0.8; stroke: #e41a1c; stroke-opacity: 0.8; stroke-width: 2"/>
     <use xlink:href="#m1f45622e3e" x="256.642103" y="459.839319" style="fill: #ffffff; fill-opacity: 0.8; stroke: #e41a1c; stroke-opacity: 0.8; stroke-width: 2"/>
     <use xlink:href="#m1f45622e3e" x="276.608171" y="459.800904" style="fill: #ffffff; fill-opacity: 0.8; stroke: #e41a1c; stroke-opacity: 0.8; stroke-width: 2"/>
     <use xlink:href="#m1f45622e3e" x="294.07848" y="358.597311" style="fill: #ffffff; fill-opacity: 0.8; stroke: #e41a1c; stroke-opacity: 0.8; stroke-width: 2"/>
     <use xlink:href="#m1f45622e3e" x="314.044548" y="459.781697" style="fill: #ffffff; fill-opacity: 0.8; stroke: #e41a1c; stroke-opacity: 0.8; stroke-width: 2"/>
     <use xlink:href="#m1f45622e3e" x="331.514856" y="482.081445" style="fill: #ffffff; fill-opacity: 0.8; stroke: #e41a1c; stroke-opacity: 0.8; stroke-width: 2"/>
     <use xlink:href="#m1f45622e3e" x="351.480924" y="358.808592" style="fill: #ffffff; fill-opacity: 0.8; stroke: #e41a1c; stroke-opacity: 0.8; stroke-width: 2"/>
     <use xlink:href="#m1f45622e3e" x="371.446993" y="473.38051" style="fill: #ffffff; fill-opacity: 0.8; stroke: #e41a1c; stroke-opacity: 0.8; stroke-width: 2"/>
     <use xlink:href="#m1f45622e3e" x="386.421543" y="473.342095" style="fill: #ffffff; fill-opacity: 0.8; stroke: #e41a1c; stroke-opacity: 0.8; stroke-width: 2"/>
     <use xlink:href="#m1f45622e3e" x="406.38761" y="473.342095" style="fill: #ffffff; fill-opacity: 0.8; stroke: #e41a1c; stroke-opacity: 0.8; stroke-width: 2"/>
     <use xlink:href="#m1f45622e3e" x="423.85792" y="473.30368" style="fill: #ffffff; fill-opacity: 0.8; stroke: #e41a1c; stroke-opacity: 0.8; stroke-width: 2"/>
     <use xlink:href="#m1f45622e3e" x="443.823987" y="473.30368" style="fill: #ffffff; fill-opacity: 0.8; stroke: #e41a1c; stroke-opacity: 0.8; stroke-width: 2"/>
     <use xlink:href="#m1f45622e3e" x="461.294296" y="473.30368" style="fill: #ffffff; fill-opacity: 0.8; stroke: #e41a1c; stroke-opacity: 0.8; stroke-width: 2"/>
     <use xlink:href="#m1f45622e3e" x="481.260365" y="473.322887" style="fill: #ffffff; fill-opacity: 0.8; stroke: #e41a1c; stroke-opacity: 0.8; stroke-width: 2"/>
     <use xlink:href="#m1f45622e3e" x="498.730674" y="473.322887" style="fill: #ffffff; fill-opacity: 0.8; stroke: #e41a1c; stroke-opacity: 0.8; stroke-width: 2"/>
     <use xlink:href="#m1f45622e3e" x="518.696741" y="473.322887" style="fill: #ffffff; fill-opacity: 0.8; stroke: #e41a1c; stroke-opacity: 0.8; stroke-width: 2"/>
     <use xlink:href="#m1f45622e3e" x="536.167049" y="473.322887" style="fill: #ffffff; fill-opacity: 0.8; stroke: #e41a1c; stroke-opacity: 0.8; stroke-width: 2"/>
     <use xlink:href="#m1f45622e3e" x="556.133119" y="473.322887" style="fill: #ffffff; fill-opacity: 0.8; stroke: #e41a1c; stroke-opacity: 0.8; stroke-width: 2"/>
     <use xlink:href="#m1f45622e3e" x="573.603427" y="473.322887" style="fill: #ffffff; fill-opacity: 0.8; stroke: #e41a1c; stroke-opacity: 0.8; stroke-width: 2"/>
     <use xlink:href="#m1f45622e3e" x="593.569494" y="473.322887" style="fill: #ffffff; fill-opacity: 0.8; stroke: #e41a1c; stroke-opacity: 0.8; stroke-width: 2"/>
     <use xlink:href="#m1f45622e3e" x="613.535562" y="473.322887" style="fill: #ffffff; fill-opacity: 0.8; stroke: #e41a1c; stroke-opacity: 0.8; stroke-width: 2"/>
     <use xlink:href="#m1f45622e3e" x="631.005872" y="473.322887" style="fill: #ffffff; fill-opacity: 0.8; stroke: #e41a1c; stroke-opacity: 0.8; stroke-width: 2"/>
     <use xlink:href="#m1f45622e3e" x="650.971939" y="473.322887" style="fill: #ffffff; fill-opacity: 0.8; stroke: #e41a1c; stroke-opacity: 0.8; stroke-width: 2"/>
     <use xlink:href="#m1f45622e3e" x="668.442248" y="473.322887" style="fill: #ffffff; fill-opacity: 0.8; stroke: #e41a1c; stroke-opacity: 0.8; stroke-width: 2"/>
     <use xlink:href="#m1f45622e3e" x="688.408316" y="473.322887" style="fill: #ffffff; fill-opacity: 0.8; stroke: #e41a1c; stroke-opacity: 0.8; stroke-width: 2"/>
     <use xlink:href="#m1f45622e3e" x="705.878625" y="473.322887" style="fill: #ffffff; fill-opacity: 0.8; stroke: #e41a1c; stroke-opacity: 0.8; stroke-width: 2"/>
     <use xlink:href="#m1f45622e3e" x="725.844693" y="473.322887" style="fill: #ffffff; fill-opacity: 0.8; stroke: #e41a1c; stroke-opacity: 0.8; stroke-width: 2"/>
     <use xlink:href="#m1f45622e3e" x="743.315002" y="473.322887" style="fill: #ffffff; fill-opacity: 0.8; stroke: #e41a1c; stroke-opacity: 0.8; stroke-width: 2"/>
     <use xlink:href="#m1f45622e3e" x="763.28107" y="473.322887" style="fill: #ffffff; fill-opacity: 0.8; stroke: #e41a1c; stroke-opacity: 0.8; stroke-width: 2"/>
     <use xlink:href="#m1f45622e3e" x="780.751379" y="473.322887" style="fill: #ffffff; fill-opacity: 0.8; stroke: #e41a1c; stroke-opacity: 0.8; stroke-width: 2"/>
     <use xlink:href="#m1f45622e3e" x="800.717447" y="473.322887" style="fill: #ffffff; fill-opacity: 0.8; stroke: #e41a1c; stroke-opacity: 0.8; stroke-width: 2"/>
     <use xlink:href="#m1f45622e3e" x="818.187756" y="473.322887" style="fill: #ffffff; fill-opacity: 0.8; stroke: #e41a1c; stroke-opacity: 0.8; stroke-width: 2"/>
     <use xlink:href="#m1f45622e3e" x="838.153823" y="473.322887" style="fill: #ffffff; fill-opacity: 0.8; stroke: #e41a1c; stroke-opacity: 0.8; stroke-width: 2"/>
     <use xlink:href="#m1f45622e3e" x="855.624132" y="473.322887" style="fill: #ffffff; fill-opacity: 0.8; stroke: #e41a1c; stroke-opacity: 0.8; stroke-width: 2"/>
     <use xlink:href="#m1f45622e3e" x="875.5902" y="473.322887" style="fill: #ffffff; fill-opacity: 0.8; stroke: #e41a1c; stroke-opacity: 0.8; stroke-width: 2"/>
     <use xlink:href="#m1f45622e3e" x="893.06051" y="473.322887" style="fill: #ffffff; fill-opacity: 0.8; stroke: #e41a1c; stroke-opacity: 0.8; stroke-width: 2"/>
     <use xlink:href="#m1f45622e3e" x="913.026577" y="473.322887" style="fill: #ffffff; fill-opacity: 0.8; stroke: #e41a1c; stroke-opacity: 0.8; stroke-width: 2"/>
     <use xlink:href="#m1f45622e3e" x="930.496886" y="473.322887" style="fill: #ffffff; fill-opacity: 0.8; stroke: #e41a1c; stroke-opacity: 0.8; stroke-width: 2"/>
     <use xlink:href="#m1f45622e3e" x="950.462954" y="473.322887" style="fill: #ffffff; fill-opacity: 0.8; stroke: #e41a1c; stroke-opacity: 0.8; stroke-width: 2"/>
    </g>
   </g>
   <g id="line2d_30">
    <path d="M 48.995 463.098849 
L 993.39 463.098849 
" clip-path="url(#p7dc22beb7f)" style="fill: none; stroke-dasharray: 5.55,2.4; stroke-dashoffset: 0; stroke: #e41a1c; stroke-opacity: 0.5; stroke-width: 1.5"/>
   </g>
   <g id="line2d_31">
    <path d="M 91.922045 462.16341 
L 109.392354 462.16341 
L 126.862663 462.16341 
L 144.332973 426.821863 
L 164.29904 461.856092 
L 181.769349 461.760055 
L 201.735417 85.987214 
L 219.205727 117.871436 
L 239.171794 117.487289 
L 256.642103 82.529889 
L 276.608171 117.487289 
L 294.07848 61.593864 
L 314.044548 114.606184 
L 331.514856 506.321136 
L 351.480924 495.123244 
L 371.446993 451.272835 
L 386.421543 485.634807 
L 406.38761 429.991078 
L 423.85792 485.461941 
L 443.823987 485.461941 
L 461.294296 485.461941 
L 481.260365 485.461941 
L 498.730674 485.461941 
L 518.696741 485.461941 
L 536.167049 485.461941 
L 556.133119 485.461941 
L 573.603427 485.385111 
L 593.569494 485.385111 
L 613.535562 485.385111 
L 631.005872 485.385111 
L 650.971939 485.385111 
L 668.442248 485.385111 
L 688.408316 485.385111 
L 705.878625 485.385111 
L 725.844693 485.385111 
L 743.315002 485.385111 
L 763.28107 485.385111 
L 780.751379 485.385111 
L 800.717447 485.385111 
L 818.187756 485.385111 
L 838.153823 485.385111 
L 855.624132 485.385111 
L 875.5902 485.385111 
L 893.06051 485.385111 
L 913.026577 485.385111 
L 930.496886 485.308282 
L 950.462954 485.308282 
" clip-path="url(#p7dc22beb7f)" style="fill: none; stroke: #999999; stroke-opacity: 0.8; stroke-width: 2; stroke-linecap: square"/>
    <defs>
     <path id="m3654779a6f" d="M 0 3 
C 0.795609 3 1.55874 2.683901 2.12132 2.12132 
C 2.683901 1.55874 3 0.795609 3 0 
C 3 -0.795609 2.683901 -1.55874 2.12132 -2.12132 
C 1.55874 -2.683901 0.795609 -3 0 -3 
C -0.795609 -3 -1.55874 -2.683901 -2.12132 -2.12132 
C -2.683901 -1.55874 -3 -0.795609 -3 0 
C -3 0.795609 -2.683901 1.55874 -2.12132 2.12132 
C -1.55874 2.683901 -0.795609 3 0 3 
z
" style="stroke: #999999; stroke-opacity: 0.8; stroke-width: 2"/>
    </defs>
    <g clip-path="url(#p7dc22beb7f)">
     <use xlink:href="#m3654779a6f" x="91.922045" y="462.16341" style="fill: #ffffff; fill-opacity: 0.8; stroke: #999999; stroke-opacity: 0.8; stroke-width: 2"/>
     <use xlink:href="#m3654779a6f" x="109.392354" y="462.16341" style="fill: #ffffff; fill-opacity: 0.8; stroke: #999999; stroke-opacity: 0.8; stroke-width: 2"/>
     <use xlink:href="#m3654779a6f" x="126.862663" y="462.16341" style="fill: #ffffff; fill-opacity: 0.8; stroke: #999999; stroke-opacity: 0.8; stroke-width: 2"/>
     <use xlink:href="#m3654779a6f" x="144.332973" y="426.821863" style="fill: #ffffff; fill-opacity: 0.8; stroke: #999999; stroke-opacity: 0.8; stroke-width: 2"/>
     <use xlink:href="#m3654779a6f" x="164.29904" y="461.856092" style="fill: #ffffff; fill-opacity: 0.8; stroke: #999999; stroke-opacity: 0.8; stroke-width: 2"/>
     <use xlink:href="#m3654779a6f" x="181.769349" y="461.760055" style="fill: #ffffff; fill-opacity: 0.8; stroke: #999999; stroke-opacity: 0.8; stroke-width: 2"/>
     <use xlink:href="#m3654779a6f" x="201.735417" y="85.987214" style="fill: #ffffff; fill-opacity: 0.8; stroke: #999999; stroke-opacity: 0.8; stroke-width: 2"/>
     <use xlink:href="#m3654779a6f" x="219.205727" y="117.871436" style="fill: #ffffff; fill-opacity: 0.8; stroke: #999999; stroke-opacity: 0.8; stroke-width: 2"/>
     <use xlink:href="#m3654779a6f" x="239.171794" y="117.487289" style="fill: #ffffff; fill-opacity: 0.8; stroke: #999999; stroke-opacity: 0.8; stroke-width: 2"/>
     <use xlink:href="#m3654779a6f" x="256.642103" y="82.529889" style="fill: #ffffff; fill-opacity: 0.8; stroke: #999999; stroke-opacity: 0.8; stroke-width: 2"/>
     <use xlink:href="#m3654779a6f" x="276.608171" y="117.487289" style="fill: #ffffff; fill-opacity: 0.8; stroke: #999999; stroke-opacity: 0.8; stroke-width: 2"/>
     <use xlink:href="#m3654779a6f" x="294.07848" y="61.593864" style="fill: #ffffff; fill-opacity: 0.8; stroke: #999999; stroke-opacity: 0.8; stroke-width: 2"/>
     <use xlink:href="#m3654779a6f" x="314.044548" y="114.606184" style="fill: #ffffff; fill-opacity: 0.8; stroke: #999999; stroke-opacity: 0.8; stroke-width: 2"/>
     <use xlink:href="#m3654779a6f" x="331.514856" y="506.321136" style="fill: #ffffff; fill-opacity: 0.8; stroke: #999999; stroke-opacity: 0.8; stroke-width: 2"/>
     <use xlink:href="#m3654779a6f" x="351.480924" y="495.123244" style="fill: #ffffff; fill-opacity: 0.8; stroke: #999999; stroke-opacity: 0.8; stroke-width: 2"/>
     <use xlink:href="#m3654779a6f" x="371.446993" y="451.272835" style="fill: #ffffff; fill-opacity: 0.8; stroke: #999999; stroke-opacity: 0.8; stroke-width: 2"/>
     <use xlink:href="#m3654779a6f" x="386.421543" y="485.634807" style="fill: #ffffff; fill-opacity: 0.8; stroke: #999999; stroke-opacity: 0.8; stroke-width: 2"/>
     <use xlink:href="#m3654779a6f" x="406.38761" y="429.991078" style="fill: #ffffff; fill-opacity: 0.8; stroke: #999999; stroke-opacity: 0.8; stroke-width: 2"/>
     <use xlink:href="#m3654779a6f" x="423.85792" y="485.461941" style="fill: #ffffff; fill-opacity: 0.8; stroke: #999999; stroke-opacity: 0.8; stroke-width: 2"/>
     <use xlink:href="#m3654779a6f" x="443.823987" y="485.461941" style="fill: #ffffff; fill-opacity: 0.8; stroke: #999999; stroke-opacity: 0.8; stroke-width: 2"/>
     <use xlink:href="#m3654779a6f" x="461.294296" y="485.461941" style="fill: #ffffff; fill-opacity: 0.8; stroke: #999999; stroke-opacity: 0.8; stroke-width: 2"/>
     <use xlink:href="#m3654779a6f" x="481.260365" y="485.461941" style="fill: #ffffff; fill-opacity: 0.8; stroke: #999999; stroke-opacity: 0.8; stroke-width: 2"/>
     <use xlink:href="#m3654779a6f" x="498.730674" y="485.461941" style="fill: #ffffff; fill-opacity: 0.8; stroke: #999999; stroke-opacity: 0.8; stroke-width: 2"/>
     <use xlink:href="#m3654779a6f" x="518.696741" y="485.461941" style="fill: #ffffff; fill-opacity: 0.8; stroke: #999999; stroke-opacity: 0.8; stroke-width: 2"/>
     <use xlink:href="#m3654779a6f" x="536.167049" y="485.461941" style="fill: #ffffff; fill-opacity: 0.8; stroke: #999999; stroke-opacity: 0.8; stroke-width: 2"/>
     <use xlink:href="#m3654779a6f" x="556.133119" y="485.461941" style="fill: #ffffff; fill-opacity: 0.8; stroke: #999999; stroke-opacity: 0.8; stroke-width: 2"/>
     <use xlink:href="#m3654779a6f" x="573.603427" y="485.385111" style="fill: #ffffff; fill-opacity: 0.8; stroke: #999999; stroke-opacity: 0.8; stroke-width: 2"/>
     <use xlink:href="#m3654779a6f" x="593.569494" y="485.385111" style="fill: #ffffff; fill-opacity: 0.8; stroke: #999999; stroke-opacity: 0.8; stroke-width: 2"/>
     <use xlink:href="#m3654779a6f" x="613.535562" y="485.385111" style="fill: #ffffff; fill-opacity: 0.8; stroke: #999999; stroke-opacity: 0.8; stroke-width: 2"/>
     <use xlink:href="#m3654779a6f" x="631.005872" y="485.385111" style="fill: #ffffff; fill-opacity: 0.8; stroke: #999999; stroke-opacity: 0.8; stroke-width: 2"/>
     <use xlink:href="#m3654779a6f" x="650.971939" y="485.385111" style="fill: #ffffff; fill-opacity: 0.8; stroke: #999999; stroke-opacity: 0.8; stroke-width: 2"/>
     <use xlink:href="#m3654779a6f" x="668.442248" y="485.385111" style="fill: #ffffff; fill-opacity: 0.8; stroke: #999999; stroke-opacity: 0.8; stroke-width: 2"/>
     <use xlink:href="#m3654779a6f" x="688.408316" y="485.385111" style="fill: #ffffff; fill-opacity: 0.8; stroke: #999999; stroke-opacity: 0.8; stroke-width: 2"/>
     <use xlink:href="#m3654779a6f" x="705.878625" y="485.385111" style="fill: #ffffff; fill-opacity: 0.8; stroke: #999999; stroke-opacity: 0.8; stroke-width: 2"/>
     <use xlink:href="#m3654779a6f" x="725.844693" y="485.385111" style="fill: #ffffff; fill-opacity: 0.8; stroke: #999999; stroke-opacity: 0.8; stroke-width: 2"/>
     <use xlink:href="#m3654779a6f" x="743.315002" y="485.385111" style="fill: #ffffff; fill-opacity: 0.8; stroke: #999999; stroke-opacity: 0.8; stroke-width: 2"/>
     <use xlink:href="#m3654779a6f" x="763.28107" y="485.385111" style="fill: #ffffff; fill-opacity: 0.8; stroke: #999999; stroke-opacity: 0.8; stroke-width: 2"/>
     <use xlink:href="#m3654779a6f" x="780.751379" y="485.385111" style="fill: #ffffff; fill-opacity: 0.8; stroke: #999999; stroke-opacity: 0.8; stroke-width: 2"/>
     <use xlink:href="#m3654779a6f" x="800.717447" y="485.385111" style="fill: #ffffff; fill-opacity: 0.8; stroke: #999999; stroke-opacity: 0.8; stroke-width: 2"/>
     <use xlink:href="#m3654779a6f" x="818.187756" y="485.385111" style="fill: #ffffff; fill-opacity: 0.8; stroke: #999999; stroke-opacity: 0.8; stroke-width: 2"/>
     <use xlink:href="#m3654779a6f" x="838.153823" y="485.385111" style="fill: #ffffff; fill-opacity: 0.8; stroke: #999999; stroke-opacity: 0.8; stroke-width: 2"/>
     <use xlink:href="#m3654779a6f" x="855.624132" y="485.385111" style="fill: #ffffff; fill-opacity: 0.8; stroke: #999999; stroke-opacity: 0.8; stroke-width: 2"/>
     <use xlink:href="#m3654779a6f" x="875.5902" y="485.385111" style="fill: #ffffff; fill-opacity: 0.8; stroke: #999999; stroke-opacity: 0.8; stroke-width: 2"/>
     <use xlink:href="#m3654779a6f" x="893.06051" y="485.385111" style="fill: #ffffff; fill-opacity: 0.8; stroke: #999999; stroke-opacity: 0.8; stroke-width: 2"/>
     <use xlink:href="#m3654779a6f" x="913.026577" y="485.385111" style="fill: #ffffff; fill-opacity: 0.8; stroke: #999999; stroke-opacity: 0.8; stroke-width: 2"/>
     <use xlink:href="#m3654779a6f" x="930.496886" y="485.308282" style="fill: #ffffff; fill-opacity: 0.8; stroke: #999999; stroke-opacity: 0.8; stroke-width: 2"/>
     <use xlink:href="#m3654779a6f" x="950.462954" y="485.308282" style="fill: #ffffff; fill-opacity: 0.8; stroke: #999999; stroke-opacity: 0.8; stroke-width: 2"/>
    </g>
   </g>
   <g id="line2d_32">
    <path d="M 48.995 422.967313 
L 993.39 422.967313 
" clip-path="url(#p7dc22beb7f)" style="fill: none; stroke-dasharray: 5.55,2.4; stroke-dashoffset: 0; stroke: #999999; stroke-opacity: 0.5; stroke-width: 1.5"/>
   </g>
   <g id="patch_3">
    <path d="M 48.995 528.5575 
L 48.995 39.3575 
" style="fill: none; stroke: #000000; stroke-width: 0.8; stroke-linejoin: miter; stroke-linecap: square"/>
   </g>
   <g id="patch_4">
    <path d="M 993.39 528.5575 
L 993.39 39.3575 
" style="fill: none; stroke: #000000; stroke-width: 0.8; stroke-linejoin: miter; stroke-linecap: square"/>
   </g>
   <g id="patch_5">
    <path d="M 48.995 528.5575 
L 993.389999 528.5575 
" style="fill: none; stroke: #000000; stroke-width: 0.8; stroke-linejoin: miter; stroke-linecap: square"/>
   </g>
   <g id="patch_6">
    <path d="M 48.995 39.3575 
L 993.389999 39.3575 
" style="fill: none; stroke: #000000; stroke-width: 0.8; stroke-linejoin: miter; stroke-linecap: square"/>
   </g>
   <g id="text_17">
    <!-- Container Memory Usage Over Time -->
    <g transform="translate(358.42 19.3575) scale(0.16 -0.16)">
     <defs>
      <path id="DejaVuSans-Bold-43" d="M 4288 256 
Q 3956 84 3597 -3 
Q 3238 -91 2847 -91 
Q 1681 -91 1000 561 
Q 319 1213 319 2328 
Q 319 3447 1000 4098 
Q 1681 4750 2847 4750 
Q 3238 4750 3597 4662 
Q 3956 4575 4288 4403 
L 4288 3438 
Q 3953 3666 3628 3772 
Q 3303 3878 2944 3878 
Q 2300 3878 1931 3465 
Q 1563 3053 1563 2328 
Q 1563 1606 1931 1193 
Q 2300 781 2944 781 
Q 3303 781 3628 887 
Q 3953 994 4288 1222 
L 4288 256 
z
" transform="scale(0.015625)"/>
      <path id="DejaVuSans-Bold-6e" d="M 4056 2131 
L 4056 0 
L 2931 0 
L 2931 347 
L 2931 1631 
Q 2931 2084 2911 2256 
Q 2891 2428 2841 2509 
Q 2775 2619 2662 2680 
Q 2550 2741 2406 2741 
Q 2056 2741 1856 2470 
Q 1656 2200 1656 1722 
L 1656 0 
L 538 0 
L 538 3500 
L 1656 3500 
L 1656 2988 
Q 1909 3294 2193 3439 
Q 2478 3584 2822 3584 
Q 3428 3584 3742 3212 
Q 4056 2841 4056 2131 
z
" transform="scale(0.015625)"/>
      <path id="DejaVuSans-Bold-74" d="M 1759 4494 
L 1759 3500 
L 2913 3500 
L 2913 2700 
L 1759 2700 
L 1759 1216 
Q 1759 972 1856 886 
Q 1953 800 2241 800 
L 2816 800 
L 2816 0 
L 1856 0 
Q 1194 0 917 276 
Q 641 553 641 1216 
L 641 2700 
L 84 2700 
L 84 3500 
L 641 3500 
L 641 4494 
L 1759 4494 
z
" transform="scale(0.015625)"/>
      <path id="DejaVuSans-Bold-4f" d="M 2719 3878 
Q 2169 3878 1866 3472 
Q 1563 3066 1563 2328 
Q 1563 1594 1866 1187 
Q 2169 781 2719 781 
Q 3272 781 3575 1187 
Q 3878 1594 3878 2328 
Q 3878 3066 3575 3472 
Q 3272 3878 2719 3878 
z
M 2719 4750 
Q 3844 4750 4481 4106 
Q 5119 3463 5119 2328 
Q 5119 1197 4481 553 
Q 3844 -91 2719 -91 
Q 1597 -91 958 553 
Q 319 1197 319 2328 
Q 319 3463 958 4106 
Q 1597 4750 2719 4750 
z
" transform="scale(0.015625)"/>
      <path id="DejaVuSans-Bold-76" d="M 97 3500 
L 1216 3500 
L 2088 1081 
L 2956 3500 
L 4078 3500 
L 2700 0 
L 1472 0 
L 97 3500 
z
" transform="scale(0.015625)"/>
      <path id="DejaVuSans-Bold-54" d="M 31 4666 
L 4331 4666 
L 4331 3756 
L 2784 3756 
L 2784 0 
L 1581 0 
L 1581 3756 
L 31 3756 
L 31 4666 
z
" transform="scale(0.015625)"/>
     </defs>
     <use xlink:href="#DejaVuSans-Bold-43"/>
     <use xlink:href="#DejaVuSans-Bold-6f" x="73.388672"/>
     <use xlink:href="#DejaVuSans-Bold-6e" x="142.089844"/>
     <use xlink:href="#DejaVuSans-Bold-74" x="213.28125"/>
     <use xlink:href="#DejaVuSans-Bold-61" x="261.083984"/>
     <use xlink:href="#DejaVuSans-Bold-69" x="328.564453"/>
     <use xlink:href="#DejaVuSans-Bold-6e" x="362.841797"/>
     <use xlink:href="#DejaVuSans-Bold-65" x="434.033203"/>
     <use xlink:href="#DejaVuSans-Bold-72" x="501.855469"/>
     <use xlink:href="#DejaVuSans-Bold-20" x="551.171875"/>
     <use xlink:href="#DejaVuSans-Bold-4d" x="585.986328"/>
     <use xlink:href="#DejaVuSans-Bold-65" x="685.498047"/>
     <use xlink:href="#DejaVuSans-Bold-6d" x="753.320312"/>
     <use xlink:href="#DejaVuSans-Bold-6f" x="857.519531"/>
     <use xlink:href="#DejaVuSans-Bold-72" x="926.220703"/>
     <use xlink:href="#DejaVuSans-Bold-79" x="975.537109"/>
     <use xlink:href="#DejaVuSans-Bold-20" x="1040.722656"/>
     <use xlink:href="#DejaVuSans-Bold-55" x="1075.537109"/>
     <use xlink:href="#DejaVuSans-Bold-73" x="1156.738281"/>
     <use xlink:href="#DejaVuSans-Bold-61" x="1216.259766"/>
     <use xlink:href="#DejaVuSans-Bold-67" x="1283.740234"/>
     <use xlink:href="#DejaVuSans-Bold-65" x="1355.322266"/>
     <use xlink:href="#DejaVuSans-Bold-20" x="1423.144531"/>
     <use xlink:href="#DejaVuSans-Bold-4f" x="1457.958984"/>
     <use xlink:href="#DejaVuSans-Bold-76" x="1542.96875"/>
     <use xlink:href="#DejaVuSans-Bold-65" x="1608.154297"/>
     <use xlink:href="#DejaVuSans-Bold-72" x="1675.976562"/>
     <use xlink:href="#DejaVuSans-Bold-20" x="1725.292969"/>
     <use xlink:href="#DejaVuSans-Bold-54" x="1760.107422"/>
     <use xlink:href="#DejaVuSans-Bold-69" x="1828.320312"/>
     <use xlink:href="#DejaVuSans-Bold-6d" x="1862.597656"/>
     <use xlink:href="#DejaVuSans-Bold-65" x="1966.796875"/>
    </g>
   </g>
   <g id="legend_1">
    <g id="patch_7">
     <path d="M 844.869688 76.71375 
L 986.39 76.71375 
Q 988.39 76.71375 988.39 74.71375 
L 988.39 46.3575 
Q 988.39 44.3575 986.39 44.3575 
L 844.869688 44.3575 
Q 842.869688 44.3575 842.869688 46.3575 
L 842.869688 74.71375 
Q 842.869688 76.71375 844.869688 76.71375 
z
" style="fill: #ffffff; opacity: 0.9; stroke: #cccccc; stroke-linejoin: miter"/>
    </g>
    <g id="line2d_33">
     <path d="M 846.869688 52.455938 
L 856.869688 52.455938 
L 866.869688 52.455938 
" style="fill: none; stroke: #e41a1c; stroke-opacity: 0.8; stroke-width: 2; stroke-linecap: square"/>
     <g>
      <use xlink:href="#m1f45622e3e" x="856.869688" y="52.455938" style="fill: #ffffff; fill-opacity: 0.8; stroke: #e41a1c; stroke-opacity: 0.8; stroke-width: 2"/>
     </g>
    </g>
    <g id="text_18">
     <!-- registry-v1-analyzer-1 -->
     <g transform="translate(874.869688 55.955938) scale(0.1 -0.1)">
      <defs>
       <path id="DejaVuSans-72" d="M 2631 2963 
Q 2534 3019 2420 3045 
Q 2306 3072 2169 3072 
Q 1681 3072 1420 2755 
Q 1159 2438 1159 1844 
L 1159 0 
L 581 0 
L 581 3500 
L 1159 3500 
L 1159 2956 
Q 1341 3275 1631 3429 
Q 1922 3584 2338 3584 
Q 2397 3584 2469 3576 
Q 2541 3569 2628 3553 
L 2631 2963 
z
" transform="scale(0.015625)"/>
       <path id="DejaVuSans-67" d="M 2906 1791 
Q 2906 2416 2648 2759 
Q 2391 3103 1925 3103 
Q 1463 3103 1205 2759 
Q 947 2416 947 1791 
Q 947 1169 1205 825 
Q 1463 481 1925 481 
Q 2391 481 2648 825 
Q 2906 1169 2906 1791 
z
M 3481 434 
Q 3481 -459 3084 -895 
Q 2688 -1331 1869 -1331 
Q 1566 -1331 1297 -1286 
Q 1028 -1241 775 -1147 
L 775 -588 
Q 1028 -725 1275 -790 
Q 1522 -856 1778 -856 
Q 2344 -856 2625 -561 
Q 2906 -266 2906 331 
L 2906 616 
Q 2728 306 2450 153 
Q 2172 0 1784 0 
Q 1141 0 747 490 
Q 353 981 353 1791 
Q 353 2603 747 3093 
Q 1141 3584 1784 3584 
Q 2172 3584 2450 3431 
Q 2728 3278 2906 2969 
L 2906 3500 
L 3481 3500 
L 3481 434 
z
" transform="scale(0.015625)"/>
       <path id="DejaVuSans-79" d="M 2059 -325 
Q 1816 -950 1584 -1140 
Q 1353 -1331 966 -1331 
L 506 -1331 
L 506 -850 
L 844 -850 
Q 1081 -850 1212 -737 
Q 1344 -625 1503 -206 
L 1606 56 
L 191 3500 
L 800 3500 
L 1894 763 
L 2988 3500 
L 3597 3500 
L 2059 -325 
z
" transform="scale(0.015625)"/>
       <path id="DejaVuSans-2d" d="M 313 2009 
L 1997 2009 
L 1997 1497 
L 313 1497 
L 313 2009 
z
" transform="scale(0.015625)"/>
       <path id="DejaVuSans-76" d="M 191 3500 
L 800 3500 
L 1894 563 
L 2988 3500 
L 3597 3500 
L 2284 0 
L 1503 0 
L 191 3500 
z
" transform="scale(0.015625)"/>
       <path id="DejaVuSans-6e" d="M 3513 2113 
L 3513 0 
L 2938 0 
L 2938 2094 
Q 2938 2591 2744 2837 
Q 2550 3084 2163 3084 
Q 1697 3084 1428 2787 
Q 1159 2491 1159 1978 
L 1159 0 
L 581 0 
L 581 3500 
L 1159 3500 
L 1159 2956 
Q 1366 3272 1645 3428 
Q 1925 3584 2291 3584 
Q 2894 3584 3203 3211 
Q 3513 2838 3513 2113 
z
" transform="scale(0.015625)"/>
       <path id="DejaVuSans-6c" d="M 603 4863 
L 1178 4863 
L 1178 0 
L 603 0 
L 603 4863 
z
" transform="scale(0.015625)"/>
       <path id="DejaVuSans-7a" d="M 353 3500 
L 3084 3500 
L 3084 2975 
L 922 459 
L 3084 459 
L 3084 0 
L 275 0 
L 275 525 
L 2438 3041 
L 353 3041 
L 353 3500 
z
" transform="scale(0.015625)"/>
      </defs>
      <use xlink:href="#DejaVuSans-72"/>
      <use xlink:href="#DejaVuSans-65" x="38.863281"/>
      <use xlink:href="#DejaVuSans-67" x="100.386719"/>
      <use xlink:href="#DejaVuSans-69" x="163.863281"/>
      <use xlink:href="#DejaVuSans-73" x="191.646484"/>
      <use xlink:href="#DejaVuSans-74" x="243.746094"/>
      <use xlink:href="#DejaVuSans-72" x="282.955078"/>
      <use xlink:href="#DejaVuSans-79" x="324.068359"/>
      <use xlink:href="#DejaVuSans-2d" x="381.498047"/>
      <use xlink:href="#DejaVuSans-76" x="414.957031"/>
      <use xlink:href="#DejaVuSans-31" x="474.136719"/>
      <use xlink:href="#DejaVuSans-2d" x="537.759766"/>
      <use xlink:href="#DejaVuSans-61" x="573.84375"/>
      <use xlink:href="#DejaVuSans-6e" x="635.123047"/>
      <use xlink:href="#DejaVuSans-61" x="698.501953"/>
      <use xlink:href="#DejaVuSans-6c" x="759.78125"/>
      <use xlink:href="#DejaVuSans-79" x="787.564453"/>
      <use xlink:href="#DejaVuSans-7a" x="846.744141"/>
      <use xlink:href="#DejaVuSans-65" x="899.234375"/>
      <use xlink:href="#DejaVuSans-72" x="960.757812"/>
      <use xlink:href="#DejaVuSans-2d" x="995.496094"/>
      <use xlink:href="#DejaVuSans-31" x="1031.580078"/>
     </g>
    </g>
    <g id="line2d_34">
     <path d="M 846.869688 67.134063 
L 856.869688 67.134063 
L 866.869688 67.134063 
" style="fill: none; stroke: #999999; stroke-opacity: 0.8; stroke-width: 2; stroke-linecap: square"/>
     <g>
      <use xlink:href="#m3654779a6f" x="856.869688" y="67.134063" style="fill: #ffffff; fill-opacity: 0.8; stroke: #999999; stroke-opacity: 0.8; stroke-width: 2"/>
     </g>
    </g>
    <g id="text_19">
     <!-- registry-v1-gramine-1 -->
     <g transform="translate(874.869688 70.634063) scale(0.1 -0.1)">
      <use xlink:href="#DejaVuSans-72"/>
      <use xlink:href="#DejaVuSans-65" x="38.863281"/>
      <use xlink:href="#DejaVuSans-67" x="100.386719"/>
      <use xlink:href="#DejaVuSans-69" x="163.863281"/>
      <use xlink:href="#DejaVuSans-73" x="191.646484"/>
      <use xlink:href="#DejaVuSans-74" x="243.746094"/>
      <use xlink:href="#DejaVuSans-72" x="282.955078"/>
      <use xlink:href="#DejaVuSans-79" x="324.068359"/>
      <use xlink:href="#DejaVuSans-2d" x="381.498047"/>
      <use xlink:href="#DejaVuSans-76" x="414.957031"/>
      <use xlink:href="#DejaVuSans-31" x="474.136719"/>
      <use xlink:href="#DejaVuSans-2d" x="537.759766"/>
      <use xlink:href="#DejaVuSans-67" x="573.84375"/>
      <use xlink:href="#DejaVuSans-72" x="637.320312"/>
      <use xlink:href="#DejaVuSans-61" x="678.433594"/>
      <use xlink:href="#DejaVuSans-6d" x="739.712891"/>
      <use xlink:href="#DejaVuSans-69" x="837.125"/>
      <use xlink:href="#DejaVuSans-6e" x="864.908203"/>
      <use xlink:href="#DejaVuSans-65" x="928.287109"/>
      <use xlink:href="#DejaVuSans-2d" x="989.810547"/>
      <use xlink:href="#DejaVuSans-31" x="1025.894531"/>
     </g>
    </g>
   </g>
  </g>
 </g>
 <defs>
  <clipPath id="p7dc22beb7f">
   <rect x="48.995" y="39.3575" width="944.395" height="489.2"/>
  </clipPath>
 </defs>
</svg>
